<svg xmlns="http://www.w3.org/2000/svg" fill-rule="evenodd" stroke-linejoin="round" stroke-miterlimit="2" clip-rule="evenodd" viewBox="0 0 512 512" id="digital-wave-audio"><path d="M131,164.1L131,347.9C131,350.659 133.24,352.9 136,352.9C138.76,352.9 141,350.659 141,347.9L141,164.1C141,161.341 138.76,159.1 136,159.1C133.24,159.1 131,161.341 131,164.1ZM419,164.1L419,347.9C419,350.659 421.24,352.9 424,352.9C426.76,352.9 429,350.659 429,347.9L429,164.1C429,161.341 426.76,159.1 424,159.1C421.24,159.1 419,161.341 419,164.1ZM275,164.1L275,347.9C275,350.659 277.24,352.9 280,352.9C282.76,352.9 285,350.659 285,347.9L285,164.1C285,161.341 282.76,159.1 280,159.1C277.24,159.1 275,161.341 275,164.1ZM467,187.075L467,324.925C467,327.684 469.24,329.925 472,329.925C474.76,329.925 477,327.684 477,324.925L477,187.075C477,184.316 474.76,182.075 472,182.075C469.24,182.075 467,184.316 467,187.075ZM83,187.075L83,324.925C83,327.684 85.24,329.925 88,329.925C90.76,329.925 93,327.684 93,324.925L93,187.075C93,184.316 90.76,182.075 88,182.075C85.24,182.075 83,184.316 83,187.075ZM323,187.075L323,324.925C323,327.684 325.24,329.925 328,329.925C330.76,329.925 333,327.684 333,324.925L333,187.075C333,184.316 330.76,182.075 328,182.075C325.24,182.075 323,184.316 323,187.075ZM227,187.075L227,324.925C227,327.684 229.24,329.925 232,329.925C234.76,329.925 237,327.684 237,324.925L237,187.075C237,184.316 234.76,182.075 232,182.075C229.24,182.075 227,184.316 227,187.075ZM179,187.075L179,324.925C179,327.684 181.24,329.925 184,329.925C186.76,329.925 189,327.684 189,324.925L189,187.075C189,184.316 186.76,182.075 184,182.075C181.24,182.075 179,184.316 179,187.075ZM371,187.075L371,324.925C371,327.684 373.24,329.925 376,329.925C378.76,329.925 381,327.684 381,324.925L381,187.075C381,184.316 378.76,182.075 376,182.075C373.24,182.075 371,184.316 371,187.075ZM107,203.22L107,308.78C107,311.54 109.24,313.78 112,313.78C114.76,313.78 117,311.54 117,308.78L117,203.22C117,200.46 114.76,198.22 112,198.22C109.24,198.22 107,200.46 107,203.22ZM155,203.22L155,308.78C155,311.54 157.24,313.78 160,313.78C162.76,313.78 165,311.54 165,308.78L165,203.22C165,200.46 162.76,198.22 160,198.22C157.24,198.22 155,200.46 155,203.22ZM299,203.22L299,308.78C299,311.54 301.24,313.78 304,313.78C306.76,313.78 309,311.54 309,308.78L309,203.22C309,200.46 306.76,198.22 304,198.22C301.24,198.22 299,200.46 299,203.22ZM395,203.22L395,308.78C395,311.54 397.24,313.78 400,313.78C402.76,313.78 405,311.54 405,308.78L405,203.22C405,200.46 402.76,198.22 400,198.22C397.24,198.22 395,200.46 395,203.22ZM251,203.22L251,308.78C251,311.54 253.24,313.78 256,313.78C258.76,313.78 261,311.54 261,308.78L261,203.22C261,200.46 258.76,198.22 256,198.22C253.24,198.22 251,200.46 251,203.22ZM443,203.22L443,308.78C443,311.54 445.24,313.78 448,313.78C450.76,313.78 453,311.54 453,308.78L453,203.22C453,200.46 450.76,198.22 448,198.22C445.24,198.22 443,200.46 443,203.22ZM35,206.945L35,305.055C35,307.814 37.24,310.055 40,310.055C42.76,310.055 45,307.814 45,305.055L45,206.945C45,204.186 42.76,201.945 40,201.945C37.24,201.945 35,204.186 35,206.945ZM11,233.025L11,278.975C11,281.735 13.24,283.975 16,283.975C18.76,283.975 21,281.735 21,278.975L21,233.025C21,230.265 18.76,228.025 16,228.025C13.24,228.025 11,230.265 11,233.025ZM203,233.025L203,278.975C203,281.735 205.24,283.975 208,283.975C210.76,283.975 213,281.735 213,278.975L213,233.025C213,230.265 210.76,228.025 208,228.025C205.24,228.025 203,230.265 203,233.025ZM59,233.025L59,278.975C59,281.735 61.24,283.975 64,283.975C66.76,283.975 69,281.735 69,278.975L69,233.025C69,230.265 66.76,228.025 64,228.025C61.24,228.025 59,230.265 59,233.025ZM491,233.025L491,278.975C491,281.735 493.24,283.975 496,283.975C498.76,283.975 501,281.735 501,278.975L501,233.025C501,230.265 498.76,228.025 496,228.025C493.24,228.025 491,230.265 491,233.025ZM347,233.025L347,278.975C347,281.735 349.24,283.975 352,283.975C354.76,283.975 357,281.735 357,278.975L357,233.025C357,230.265 354.76,228.025 352,228.025C349.24,228.025 347,230.265 347,233.025Z"></path></svg>