<svg xmlns="http://www.w3.org/2000/svg" enable-background="new 0 0 512 512" viewBox="0 0 512 512" id="video-call"><path fill="#485143" d="M80,482.5v-453C80,16,91,5,104.5,5h303C421,5,432,16,432,29.5v453c0,13.5-11,24.5-24.5,24.5
			h-303C91,507,80,496,80,482.5z"></path><path fill="#68a1d6" d="M102,460.5v-409C102,38,113,27,126.5,27h259C399,27,410,38,410,51.5v409
			c0,13.5-11,24.5-24.5,24.5h-259C113,485,102,474,102,460.5z"></path><path fill="#9ad2fc" d="M102 460.5c0 11.5 7.8 21.1 18.5 23.8L324.4 27h-72.5L102 363.1V460.5zM410 51.5C410 38 399 27 385.5 27h-27.4L153.9 485h106.2L410 148.9V51.5z"></path><path fill="#993e29" d="M345.9,299.5H166.1c-16.3,0-29-14-27.4-30.2l9.7-101.3h215.3l9.7,101.3
				C374.9,285.5,362.2,299.5,345.9,299.5z"></path><path fill="#b1614a" d="M138.7,269c-1.5,16.2,11.2,30,27.4,30H256v-60H141.6L138.7,269z"></path><path fill="#f7c8a9" d="M256,299.5L256,299.5c-40.6,0-73.6-32.9-73.6-73.6v-51.1c0-40.6,32.9-73.6,73.6-73.6h0
				c40.6,0,73.6,32.9,73.6,73.6v51.1C329.5,266.5,296.6,299.5,256,299.5z"></path><rect width="23" height="10" x="215" y="185" fill="#485143"></rect><path fill="#485143" d="M243,222h-10v-12h-7v-10h12c2.8,0,5,2.2,5,5V222z"></path><rect width="23" height="10" x="274" y="185" fill="#485143"></rect><path fill="#993e29" d="M170.8,144.1h34v11.6c0,12.3-10,22.3-22.3,22.3h0h-11.7V144.1z"></path><path fill="#485143" d="M279,222h-10v-17c0-2.8,2.2-5,5-5h12v10h-7V222z"></path><path fill="#b1614a" d="M232.4,84H256v33.2c0,28.1-22.8,50.8-50.8,50.8h-56.8v0C148.4,121.6,186,84,232.4,84z"></path><path fill="#ef937e" d="M329.5 222.9h11.7c12.4 0 22.4-10 22.4-22.4v0c0-12.4-10-22.4-22.4-22.4h-11.7V222.9zM182.4 222.9h-11.7c-12.4 0-22.4-10-22.4-22.4v0c0-12.4 10-22.4 22.4-22.4h11.7V222.9zM255.9 254.7c-1.3 0-2.6-.5-3.5-1.5l-10.2-10.2 7.1-7.1 6.6 6.6 6.6-6.6 7.1 7.1-10.1 10.1C258.5 254.2 257.2 254.7 255.9 254.7z"></path><path fill="#993e29" d="M341.2,144.1h-34v11.6c0,12.3,10,22.3,22.3,22.3h0h11.7V144.1z"></path><path fill="#db3328" d="M373.5,485H138.5v-47.5c0-64.9,52.6-117.5,117.5-117.5h0c64.9,0,117.5,52.6,117.5,117.5
				V485z"></path><rect width="10" height="57" x="177" y="428" fill="#b5100b"></rect><rect width="10" height="48" x="325" y="437" fill="#b5100b"></rect><path fill="#b1614a" d="M279.6,84H256v33.2c0,28.1,22.8,50.8,50.8,50.8h56.8v0C363.6,121.6,326,84,279.6,84z"></path><path fill="#d37762" d="M277.5,110H223c-4.4,0-8-3.6-8-8v0c0-4.4,3.6-8,8-8h54.5c4.4,0,8,3.6,8,8v0
				C285.5,106.4,281.9,110,277.5,110z"></path><path fill="#b5100b" d="M198.5,335l44.3,29c27.9,18.3,60.5,28,93.8,28h27.8c-17.8-42.3-59.6-72-108.3-72h0
				C235.1,320,215.5,325.5,198.5,335z"></path><path fill="#485143" d="M326,27H186v0c0,12.2,9.8,22,22,22h96C316.2,49,326,39.2,326,27L326,27z"></path><rect width="90" height="116.5" x="294" y="320.5" fill="#bebf31"></rect><path fill="#b23998" d="M339,392L339,392c-24.8,0-45,20.1-45,45v0h90v0C384,412.2,363.8,392,339,392z"></path><path fill="#751764" d="M323.5,394.8l6.1,6.1c8.9,9,21.1,14.1,33.8,14.1h14.9c-7.7-13.7-22.4-23-39.2-23l0,0
			C333.5,392,328.3,393,323.5,394.8z"></path><circle cx="339" cy="358" r="21" fill="#f7c8a9"></circle><path fill="#485143" d="M360,358l-4.8-0.6c-3.2-0.4-6.3-1.4-9-2.9c-2.8-1.5-5.2-3.6-7.2-6.2l0,0
			c-4,5-9.8,8.3-16.2,9.1L318,358c0-11.6,9.4-21,21-21C350.6,337,360,346.4,360,358z"></path><path fill="#060d1a" d="M407.5,512h-303C88.2,512,75,498.8,75,482.5v-453C75,13.2,88.2,0,104.5,0h303
				C423.8,0,437,13.2,437,29.5v453C437,498.8,423.8,512,407.5,512z M104.5,10C93.7,10,85,18.8,85,29.5v453
				c0,10.8,8.8,19.5,19.5,19.5h303c10.8,0,19.5-8.8,19.5-19.5v-453c0-10.8-8.8-19.5-19.5-19.5H104.5z"></path><path fill="#060d1a" d="M304 54h-96c-14.9 0-27-12.1-27-27 0-2.8 2.2-5 5-5h140c2.8 0 5 2.2 5 5C331 41.9 318.9 54 304 54zM191.8 32c2.1 6.9 8.6 12 16.3 12h96c7.6 0 14.1-5.1 16.3-12H191.8zM384 442h-90c-2.8 0-5-2.2-5-5V320.5c0-2.8 2.2-5 5-5h90c2.8 0 5 2.2 5 5V437C389 439.8 386.8 442 384 442zM299 432h80V325.5h-80V432z"></path><path fill="#060d1a" d="M299 437h-10c0-27.6 22.4-50 50-50 9.7 0 19.1 2.8 27.2 8l-5.4 8.4c-6.5-4.2-14-6.4-21.8-6.4C316.9 397 299 414.9 299 437zM339 384c-14.3 0-26-11.7-26-26s11.7-26 26-26 26 11.7 26 26S353.3 384 339 384zM339 342c-8.8 0-16 7.2-16 16s7.2 16 16 16 16-7.2 16-16S347.8 342 339 342z"></path><path fill="#060d1a" d="M318.6 363l-1.2-9.9 4.8-.6c5.1-.6 9.7-3.2 12.9-7.2.9-1.2 2.4-1.9 3.9-1.9 1.6 0 3 .7 4 1.9 3.2 4 7.8 6.6 12.9 7.2l4.8.6-1.2 9.9-4.8-.6c-5.9-.7-11.2-3.1-15.6-6.9-4.4 3.8-9.8 6.2-15.6 6.9L318.6 363zM256 304.5c-43.3 0-78.6-35.2-78.6-78.6v-47.8h10v47.8c0 37.8 30.8 68.6 68.6 68.6s68.6-30.8 68.6-68.6v-47.8h10v47.8C334.5 269.2 299.3 304.5 256 304.5z"></path><rect width="23" height="10" x="215" y="185" fill="#060d1a"></rect><path fill="#060d1a" d="M243,222h-10v-12h-7v-10h12c2.8,0,5,2.2,5,5V222z"></path><rect width="23" height="10" x="274" y="185" fill="#060d1a"></rect><path fill="#060d1a" d="M279,222h-10v-17c0-2.8,2.2-5,5-5h12v10h-7V222z"></path><path fill="#060d1a" d="M345.9,304.5H166.1c-9.2,0-17.9-3.9-24.1-10.7c-6.2-6.8-9.2-15.9-8.3-25l9.7-101
					c0.1-49,40-88.8,89-88.8h47.3c49,0,88.9,39.8,89,88.8l9.7,101c0.9,9.1-2.2,18.2-8.3,25C363.8,300.6,355.1,304.5,345.9,304.5z
					 M232.4,89c-43.6,0-79,35.4-79,79c0,0.2,0,0.3,0,0.5l-9.7,101.3c-0.6,6.4,1.4,12.6,5.8,17.3s10.3,7.4,16.7,7.4h179.8
					c6.4,0,12.4-2.6,16.7-7.4s6.4-10.9,5.8-17.3l-9.7-101.3c0-0.2,0-0.3,0-0.5c0-43.6-35.4-79-79-79H261v28.2
					c0,25.3,20.6,45.8,45.8,45.8l4.1,0c1.7,0,3.2,0.8,4.2,2.2c3.2,4.9,8.6,7.8,14.5,7.8h11.7v10h-11.7c-8.3,0-16-3.7-21.2-10.1
					l-1.5,0c-22.6,0-42-13.4-50.8-32.7c-8.8,19.3-28.3,32.7-50.8,32.7l-1.5,0c-5.2,6.3-12.9,10.1-21.2,10.1h-11.7v-10h11.7
					c5.8,0,11.3-2.9,14.5-7.8c0.9-1.4,2.5-2.2,4.2-2.2l4.1,0c25.3,0,45.8-20.6,45.8-45.8V89H232.4z"></path><path fill="#060d1a" d="M341.2 227.9h-11.7c-2.8 0-5-2.2-5-5v-44.8c0-2.8 2.2-5 5-5h11.7c15.1 0 27.4 12.3 27.4 27.4S356.3 227.9 341.2 227.9zM334.5 217.9h6.7c9.6 0 17.4-7.8 17.4-17.4 0-9.6-7.8-17.4-17.4-17.4h-6.7V217.9zM182.4 227.9h-11.7c-15.1 0-27.4-12.3-27.4-27.4s12.3-27.4 27.4-27.4h11.7c2.8 0 5 2.2 5 5v44.8C187.4 225.7 185.2 227.9 182.4 227.9zM170.8 183.1c-9.6 0-17.4 7.8-17.4 17.4 0 9.6 7.8 17.4 17.4 17.4h6.7v-34.8H170.8zM255.9 254.7c-1.3 0-2.6-.5-3.5-1.5l-10.2-10.2 7.1-7.1 6.6 6.6 6.6-6.6 7.1 7.1-10.1 10.1C258.5 254.2 257.2 254.7 255.9 254.7zM373.5 490H138.5c-2.8 0-5-2.2-5-5v-47.5c0-67.5 54.9-122.5 122.5-122.5 6.3 0 12.6.5 18.8 1.4l-1.5 9.9c-5.7-.9-11.5-1.3-17.2-1.3-62 0-112.5 50.4-112.5 112.5V480h224.9l0-43 10 0 0 .5V485C378.5 487.8 376.2 490 373.5 490z"></path><rect width="10" height="57" x="177" y="428" fill="#060d1a"></rect><rect width="10" height="48" x="325" y="437" fill="#060d1a"></rect><path fill="#060d1a" d="M385.5,490h-259c-16.3,0-29.5-13.2-29.5-29.5v-409C97,35.2,110.2,22,126.5,22H326v10
				H126.5c-10.8,0-19.5,8.8-19.5,19.5v409c0,10.8,8.8,19.5,19.5,19.5h259c10.8,0,19.5-8.8,19.5-19.5v-409c0-10.8-8.8-19.5-19.5-19.5
				H346V22h39.5c16.3,0,29.5,13.2,29.5,29.5v409C415,476.8,401.8,490,385.5,490z"></path></svg>