<svg xmlns="http://www.w3.org/2000/svg" viewBox="0 0 64 64" id="video-call"><path fill="#78b9eb" d="M61 16v20a2.006 2.006 0 0 1-2 2H30l3-4V16a2.006 2.006 0 0 1 2-2h24a2.006 2.006 0 0 1 2 2zm-5 8a4.958 4.958 0 0 0-4.91-5A4.876 4.876 0 0 0 47 21.24 4.876 4.876 0 0 0 42.91 19 4.958 4.958 0 0 0 38 24c0 6.53 9 10 9 10s9-3.1 9-10zM35 47v6H7v-6a6 6 0 0 1 6-6h4v1a4 4 0 0 0 8 0v-1h4a6 6 0 0 1 6 6zm4 6v6a2.006 2.006 0 0 1-2 2H5a2.006 2.006 0 0 1-2-2v-6h36zm0-48v2H3V5a2.006 2.006 0 0 1 2-2h32a2.006 2.006 0 0 1 2 2zm-9 14H12.41A4.417 4.417 0 0 1 8 14.59V11h14a8 8 0 0 1 8 8z"></path><path fill="#006df0" d="M19 56h4v2h-4zM21 33.5c-1.084 0-2-.687-2-1.5h-2a3.779 3.779 0 0 0 4 3.5 3.779 3.779 0 0 0 4-3.5h-2c0 .813-.916 1.5-2 1.5zM18 28a1 1 0 0 0 1-1v-1a1 1 0 0 0-2 0v1a1 1 0 0 0 1 1zm6-3a1 1 0 0 0-1 1v1a1 1 0 0 0 2 0v-1a1 1 0 0 0-1-1z"></path><path fill="#006df0" d="M59 13H40V5a3.009 3.009 0 0 0-3-3H5a3.009 3.009 0 0 0-3 3v54a3.009 3.009 0 0 0 3 3h32a3.009 3.009 0 0 0 3-3V39h19a3.009 3.009 0 0 0 3-3V16a3.009 3.009 0 0 0-3-3ZM4 5a1 1 0 0 1 1-1h32a1 1 0 0 1 1 1v1H4Zm0 3h34v5h-3a3.009 3.009 0 0 0-3 3v5h-1v-2a9.014 9.014 0 0 0-9-9H8a1 1 0 0 0-1 1v3.59a5.429 5.429 0 0 0 4 5.22V21h-1a3.009 3.009 0 0 0-3 3v1a3.009 3.009 0 0 0 3 3h1v2a10.023 10.023 0 0 0 5 8.65V40h-3a7.008 7.008 0 0 0-7 7v5H4Zm28 15v3h-1v-3ZM21 47a5 5 0 0 0 5-5h3a5 5 0 0 1 5 5v5H8v-5a5 5 0 0 1 5-5h3a5 5 0 0 0 5 5Zm-3-5v-2.46a10.013 10.013 0 0 0 6 0V42a3 3 0 1 1-6 0Zm3-4a8.011 8.011 0 0 1-8-8V20h16v10a8.011 8.011 0 0 1-8 8Zm-8.59-20A3.414 3.414 0 0 1 9 14.59V12h13a7.013 7.013 0 0 1 6.93 6ZM11 23v3h-1a1 1 0 0 1-1-1v-1a1 1 0 0 1 1-1Zm27 36a1 1 0 0 1-1 1H5a1 1 0 0 1-1-1v-5h34Zm0-7h-2v-5a7.008 7.008 0 0 0-7-7h-3v-1.35A10.023 10.023 0 0 0 31 30v-2h1v5.67l-2.8 3.73a1 1 0 0 0-.09 1.05.977.977 0 0 0 .89.55h8Zm22-16a1 1 0 0 1-1 1H32l1.8-2.4a.984.984 0 0 0 .2-.6V16a1 1 0 0 1 1-1h24a1 1 0 0 1 1 1Z"></path><path fill="#006df0" d="M51.091 18A5.841 5.841 0 0 0 47 19.67 5.841 5.841 0 0 0 42.909 18 5.962 5.962 0 0 0 37 24c0 7.138 9.247 10.781 9.641 10.934a1 1 0 0 0 .685.011C47.721 34.81 57 31.527 57 24a5.962 5.962 0 0 0-5.909-6Zm-4.073 14.923C45.445 32.231 39 29.086 39 24a3.959 3.959 0 0 1 3.909-4 3.88 3.88 0 0 1 3.253 1.783 1.038 1.038 0 0 0 1.676 0A3.88 3.88 0 0 1 51.091 20 3.959 3.959 0 0 1 55 24c0 5.377-6.41 8.289-7.982 8.923Z"></path></svg>