<svg xmlns="http://www.w3.org/2000/svg" viewBox="0 0 1010 978.482" id="video"><path fill="#545454" d="M984.759 0H25.24C11.298 0 0 11.253 0 25.196v953.286h1010V25.196C1010 11.253 998.68 0 984.759 0zM278.526 51.29c15.243 0 27.617 12.328 27.617 27.616 0 15.243-12.374 27.572-27.617 27.572-15.288 0-27.64-12.329-27.64-27.572 0-15.288 12.352-27.617 27.64-27.617zm-89.106-.046c15.22 0 27.617 12.374 27.617 27.662 0 15.243-12.396 27.617-27.617 27.617-15.266 0-27.617-12.374-27.617-27.617 0-15.288 12.351-27.662 27.617-27.662zm-89.15 0c15.288 0 27.639 12.374 27.639 27.662 0 15.243-12.351 27.572-27.64 27.572-15.22 0-27.594-12.329-27.594-27.572 0-15.288 12.374-27.662 27.594-27.662zM931.092 899.53H78.906V157.813h852.187V899.53z"></path><path fill="#DAB466" d="M178.75 701.951h652.5c15.826 0 28.828-12.956 28.828-28.826v-415.2c0-15.826-13.002-28.783-28.828-28.783h-652.5c-15.827 0-28.828 12.957-28.828 28.783v415.2c0 15.87 13.001 28.826 28.828 28.826zm240.753-324.546c47.21-47.165 123.808-47.165 171.039 0 47.208 47.21 47.208 123.83 0 171.038-47.231 47.164-123.807 47.21-171.039 0-47.21-47.209-47.21-123.829 0-171.038z"></path><path fill="#545454" d="M149.922 804.889c0-12.33 9.953-22.238 22.192-22.238h274.02c-2.623 6.95-4.26 14.392-4.26 22.238 0 7.8 1.637 15.198 4.26 22.147h-274.02c-12.239 0-22.192-9.954-22.192-22.147zM860.078 804.889c0 12.193-9.932 22.147-22.192 22.147H563.889c2.622-6.95 4.236-14.348 4.236-22.147 0-7.846-1.614-15.288-4.236-22.238h273.997c12.26 0 22.192 9.909 22.192 22.238zM537.594 782.651c4.348 6.367 6.858 13.989 6.858 22.238 0 8.159-2.51 15.87-6.858 22.147-7.062 10.446-19.032 17.306-32.594 17.306-13.562 0-25.488-6.86-32.594-17.306a39.25 39.25 0 01-6.86-22.147c0-8.25 2.557-15.871 6.86-22.238 7.106-10.401 19.032-17.26 32.594-17.26 13.563 0 25.532 6.859 32.594 17.26zM524.48 494.419l-54.091 31.608V399.776l54.091 31.563 54.136 31.562z"></path></svg>